<?xml version="1.0" encoding="UTF-8" standalone="no"?>
<svg width="248px" height="106px" viewBox="0 0 248 106" version="1.1" xmlns="http://www.w3.org/2000/svg" xmlns:xlink="http://www.w3.org/1999/xlink" xmlns:sketch="http://www.bohemiancoding.com/sketch/ns">
    <!-- Generator: Sketch 3.2.2 (9983) - http://www.bohemiancoding.com/sketch -->
    <title>Meteor Beats Logo</title>
    <desc>Created with Sketch.</desc>
    <defs></defs>
    <g id="Page-1" stroke="none" stroke-width="1" fill="none" fill-rule="evenodd" sketch:type="MSPage">
        <g id="Meteor-Beats-Logo" sketch:type="MSLayerGroup" transform="translate(0.000000, -1.000000)">
            <rect id="Rectangle-2" fill="#D8D8D8" sketch:type="MSShapeGroup" x="0" y="58" width="247" height="2"></rect>
            <path d="M4.8984375,50 L4.8984375,13.7890625 L5.0390625,13.7890625 L19.3476562,46.3085938 L24.09375,46.3085938 L38.3671875,13.7890625 L38.5429688,13.7890625 L38.5429688,50 L43.2890625,50 L43.2890625,2.046875 L38.2617188,2.046875 L21.8085938,40.4726562 L21.6679688,40.4726562 L5.1796875,2.046875 L0.15234375,2.046875 L0.15234375,50 L4.8984375,50 Z M83.71875,45.21875 L60.65625,45.21875 L60.65625,27.8515625 L82.453125,27.8515625 L82.453125,23.1054688 L60.65625,23.1054688 L60.65625,6.79296875 L83.71875,6.79296875 L83.71875,2.046875 L55.4179688,2.046875 L55.4179688,50 L83.71875,50 L83.71875,45.21875 Z M108.539062,50 L108.539062,6.79296875 L123.480469,6.79296875 L123.480469,2.046875 L88.4648438,2.046875 L88.4648438,6.79296875 L103.371094,6.79296875 L103.371094,50 L108.539062,50 Z M158.460938,45.21875 L135.398438,45.21875 L135.398438,27.8515625 L157.195312,27.8515625 L157.195312,23.1054688 L135.398438,23.1054688 L135.398438,6.79296875 L158.460938,6.79296875 L158.460938,2.046875 L130.160156,2.046875 L130.160156,50 L158.460938,50 L158.460938,45.21875 Z M171.785156,22.5078125 C171.785156,11.5390625 177.621094,5.7734375 185.425781,5.7734375 C193.265625,5.7734375 199.136719,11.5390625 199.136719,22.5078125 L199.136719,29.9609375 C199.136719,40.9296875 193.300781,46.2382812 185.425781,46.2382812 C177.621094,46.2382812 171.785156,40.9296875 171.785156,29.9609375 L171.785156,22.5078125 Z M166.582031,29.9257813 C166.582031,43.390625 173.894531,51.0195312 185.390625,51.0195312 C196.851562,51.0195312 204.375,43.390625 204.375,29.9257813 L204.375,22.5429688 C204.375,9.04296875 196.992188,0.9921875 185.496094,0.9921875 C174.070312,0.9921875 166.582031,9.04296875 166.582031,22.5429688 L166.582031,29.9257813 Z M231.269531,2.046875 L214.394531,2.046875 L214.394531,50 L219.632812,50 L219.632812,30.4882812 L232.007812,30.4882812 L241.183594,50 L247.195312,50 L237.246094,29.3984375 C241.746094,27.8867188 246.351562,23.9140625 246.351562,16.109375 C246.351562,8.65625 241.640625,2.046875 231.269531,2.046875 L231.269531,2.046875 Z M219.632812,25.7421875 L219.632812,6.7578125 L230.601562,6.7578125 C236.929688,6.7578125 240.972656,10.1328125 240.972656,16.4609375 C240.972656,22.3320312 237.351562,25.7421875 230.355469,25.7421875 L219.632812,25.7421875 Z" id="METEOR-" fill="#D6D6D6" sketch:type="MSShapeGroup"></path>
            <path d="M44.9335938,68.0058594 L44.9335938,107 L74.7109375,107 C77.3105599,107 79.4321207,106.414557 81.0756836,105.243652 C82.7192465,104.072748 83.5410156,102.337902 83.5410156,100.039062 L83.5410156,91.9824219 C83.5410156,90.4355391 82.9126039,89.0659239 81.6557617,87.8735352 C80.3989195,86.6811464 78.9003993,86.0849609 77.1601562,86.0849609 C78.1699269,86.0634765 79.0292933,85.9130873 79.7382812,85.6337891 C80.4472692,85.3544908 80.9843732,85.0375994 81.3496094,84.6831055 C81.7148456,84.3286115 81.9941397,83.85596 82.1875,83.2651367 C82.3808603,82.6743135 82.4936522,82.1748067 82.5258789,81.7666016 C82.5581056,81.3583964 82.5742188,80.8320345 82.5742188,80.1875 L82.5742188,74.9667969 C82.5742188,72.6679573 81.7578207,70.9331113 80.125,69.762207 C78.4921793,68.5913027 76.3759896,68.0058594 73.7763672,68.0058594 L44.9335938,68.0058594 Z M50.3154297,72.8720703 L72.3261719,72.8720703 C75.4629063,72.8720703 77.03125,74.0751833 77.03125,76.4814453 L77.03125,81.0576172 C77.03125,83.3134878 75.4629063,84.4414062 72.3261719,84.4414062 L50.3154297,84.4414062 L50.3154297,72.8720703 Z M50.3154297,89.2109375 L73.2607422,89.2109375 C76.3974766,89.2109375 77.9658203,90.349598 77.9658203,92.6269531 L77.9658203,98.75 C77.9658203,101.027355 76.3974766,102.166016 73.2607422,102.166016 L50.3154297,102.166016 L50.3154297,89.2109375 Z M95.2392578,78.2539062 C92.8974492,78.2539062 90.8994223,79.0004808 89.2451172,80.4936523 C87.590812,81.9868239 86.7636719,83.7861223 86.7636719,85.8916016 L86.7636719,95.3017578 L86.7636719,101.134766 C86.7636719,102.767586 87.4350519,104.153315 88.777832,105.291992 C90.1206122,106.43067 91.7480373,107 93.6601562,107 L113.447266,107 L113.447266,102.520508 L94.5625,102.520508 C93.8105431,102.520508 93.1821314,102.337892 92.6772461,101.972656 C92.1723608,101.60742 91.9199219,101.134769 91.9199219,100.554688 L91.9199219,95.3017578 L116.025391,95.3017578 L116.025391,85.8916016 C116.025391,83.7861223 115.19825,81.9868239 113.543945,80.4936523 C111.88964,79.0004808 109.891613,78.2539062 107.549805,78.2539062 L95.2392578,78.2539062 Z M96.4638672,82.9267578 L106.325195,82.9267578 C107.614264,82.9267578 108.683101,83.3081017 109.531738,84.0708008 C110.380375,84.8334999 110.81543,85.8056582 110.836914,86.9873047 L110.836914,90.6611328 L91.9199219,90.6611328 L91.9199219,86.9873047 C91.9199219,85.8271426 92.3549761,84.8603554 93.2250977,84.0869141 C94.0952192,83.3134727 95.1747982,82.9267578 96.4638672,82.9267578 L96.4638672,82.9267578 Z M148.509766,107 L148.509766,78.2216797 L127.788086,78.2216797 C125.424793,78.2216797 123.410653,78.9682543 121.745605,80.4614258 C120.080558,81.9545973 119.248047,83.7538957 119.248047,85.859375 L119.248047,99.3623047 C119.248047,101.467784 120.080558,103.267082 121.745605,104.760254 C123.410653,106.253425 125.424793,107 127.788086,107 L148.509766,107 Z M143.321289,102.327148 L128.980469,102.327148 C127.669915,102.327148 126.584965,101.940434 125.725586,101.166992 C124.866207,100.393551 124.436523,99.4267636 124.436523,98.2666016 L124.436523,86.9873047 C124.436523,85.8271426 124.866207,84.8603554 125.725586,84.0869141 C126.584965,83.3134727 127.669915,82.9267578 128.980469,82.9267578 L143.321289,82.9267578 L143.321289,102.327148 Z M152.054688,72.6787109 C152.076172,81.9170384 152.086914,90.8114807 152.086914,99.3623047 C152.086914,101.467784 152.919425,103.267082 154.584473,104.760254 C156.24952,106.253425 158.252918,107 160.594727,107 L170.423828,107 L170.423828,102.359375 L161.335938,102.359375 C160.175775,102.359375 159.208988,101.951176 158.435547,101.134766 C157.662106,100.318355 157.275391,99.3515681 157.275391,98.234375 L157.275391,82.8945312 L170.423828,82.8945312 L170.423828,78.2216797 L157.243164,78.2216797 L157.243164,72.6787109 L152.054688,72.6787109 Z M180.865234,78.2216797 C178.953115,78.2216797 177.32569,78.796381 175.98291,79.9458008 C174.64013,81.0952206 173.96875,82.48632 173.96875,84.1191406 L173.96875,88.5341797 C173.96875,90.1670004 174.64013,91.5580997 175.98291,92.7075195 C177.32569,93.8569393 178.953115,94.4316406 180.865234,94.4316406 L194.625977,94.4316406 C195.420902,94.4316406 196.054685,94.6357401 196.527344,95.0439453 C197.000002,95.4521505 197.236328,95.9892545 197.236328,96.6552734 L197.236328,100.361328 C197.236328,101.027347 196.994631,101.569822 196.51123,101.98877 C196.02783,102.407717 195.388676,102.617188 194.59375,102.617188 L175.257812,102.617188 L175.257812,107 L195.496094,107 C197.408213,107 199.035638,106.43067 200.378418,105.291992 C201.721198,104.153315 202.392578,102.767586 202.392578,101.134766 L202.392578,96.0751953 C202.392578,94.4423746 201.721198,93.0512753 200.378418,91.9018555 C199.035638,90.7524357 197.408213,90.1777344 195.496094,90.1777344 L181.767578,90.1777344 C180.972652,90.1777344 180.333499,89.9682638 179.850098,89.5493164 C179.366697,89.130369 179.125,88.587894 179.125,87.921875 L179.125,84.8925781 C179.125,84.2265592 179.366697,83.6840841 179.850098,83.2651367 C180.333499,82.8461893 180.972652,82.6367188 181.767578,82.6367188 C190.253949,82.6152343 196.269514,82.6044922 199.814453,82.6044922 L199.814453,78.2216797 L180.865234,78.2216797 Z" id="Beats" fill="#B90000" sketch:type="MSShapeGroup"></path>
        </g>
    </g>
</svg>